<?xml version="1.0" encoding="UTF-8" standalone="no"?>
<!-- Created with Inkscape (http://www.inkscape.org/) -->

<svg
   xmlns:dc="http://purl.org/dc/elements/1.1/"
   xmlns:cc="http://creativecommons.org/ns#"
   xmlns:rdf="http://www.w3.org/1999/02/22-rdf-syntax-ns#"
   xmlns:svg="http://www.w3.org/2000/svg"
   xmlns="http://www.w3.org/2000/svg"
   xmlns:sodipodi="http://sodipodi.sourceforge.net/DTD/sodipodi-0.dtd"
   xmlns:inkscape="http://www.inkscape.org/namespaces/inkscape"
   width="200mm"
   height="200mm"
   enable-background="new"
   version="1.1"
   viewBox="0 0 200 200"
   id="svg25"
   sodipodi:docname="bg.svg"
   inkscape:version="0.92.4 (5da689c313, 2019-01-14)">
  <sodipodi:namedview
     pagecolor="#ffffff"
     bordercolor="#666666"
     borderopacity="1"
     objecttolerance="10"
     gridtolerance="10"
     guidetolerance="10"
     inkscape:pageopacity="0"
     inkscape:pageshadow="2"
     inkscape:window-width="1920"
     inkscape:window-height="1015"
     id="namedview27"
     showgrid="false"
     inkscape:zoom="0.31220833"
     inkscape:cx="377.95276"
     inkscape:cy="377.95276"
     inkscape:window-x="0"
     inkscape:window-y="39"
     inkscape:window-maximized="1"
     inkscape:current-layer="svg25" />
  <defs
     id="defs7">
    <linearGradient
       id="linearGradient1819"
       x1="32.909"
       x2="38.156"
       y1="143.5"
       y2="260"
       gradientTransform="translate(.35649 .30232)"
       gradientUnits="userSpaceOnUse">
      <stop
         stop-color="#f2f2f2"
         offset="0"
         id="stop2" />
      <stop
         stop-color="#b3b3b3"
         offset="1"
         id="stop4" />
    </linearGradient>
  </defs>
  <metadata
     id="metadata9">
    <rdf:RDF>
      <cc:Work
         rdf:about="">
        <dc:format>image/svg+xml</dc:format>
        <dc:type
           rdf:resource="http://purl.org/dc/dcmitype/StillImage" />
        <dc:title></dc:title>
      </cc:Work>
    </rdf:RDF>
  </metadata>
  <g
     transform="translate(-4.4494 -89.881)"
     id="g23"
     style="opacity:0.67">
    <g
       stroke-miterlimit="15"
       id="g17"
       stroke-width="0"
       style="">
      <path
         d="m184.65 191.55c0 13.337-10.043 25.253-16.79 36.555-6.6455 11.131-9.9212 21.692-19.705 28.976-13.412 9.9842-26.033 15.003-44.038 15.003-25.393 0-45.817-13.532-60.578-31.895-11.093-13.8-19.956-29.554-19.956-48.639 0-9.6782 3.6394-18.747 6.3962-27.641 4.8462-15.635 11.615-29.802 24.362-39.142 13.326-9.7645 31.99-13.751 49.776-13.751 23.034 0 44.254 5.6655 58.932 21.167 13.665 14.432 21.602 37.923 21.602 59.367z"
         style="paint-order:normal"
         id="path11"
         fill="#8a0"
         opacity=".96" />
      <path
         transform="matrix(.98337 -.18162 .31218 .95002 0 0)"
         d="m16.892 143.98 56.591 4.2998c3.665 0.27847 6.522 3.0174 6.7017 6.7017l4.6742 95.87c0.17963 3.6843-4.3479 9.7886-6.4397 9.796l-64.759 0.22719c-3.7144 0.013-6.7017-2.9889-6.7017-6.7017v-99.191c0-3.7127 6.2681-11.28 9.9331-11.002z"
         style="paint-order:normal"
         id="path13"
         fill="url(#linearGradient1819)" />
      <path
         transform="matrix(.98337 -.18162 .31218 .95002 0 0)"
         d="m18.33 143.78h59.823c3.7127 0 6.7017 2.9889 6.7017 6.7016v99.191c0 3.7127-2.9889 6.7017-6.7017 6.7017h-59.823c-3.7127 0-6.7017-2.9889-6.7017-6.7017v-99.191c0-3.7127 2.9889-6.7016 6.7017-6.7016z"
         style="paint-order:normal"
         id="path15"
         enable-background="new"
         fill="#fff" />
    </g>
    <g
       transform="matrix(.45489 -.08036 .128 .43228 -107.9 42.789)"
       aria-label="Z"
       id="g21"
       fill="#b3b3b3"
       style="">
      <path
         d="m407.62 321.5h-73.152v14.784h53.952l-59.904 103.1v14.208h76.992l1.92-15.168h-59.328l59.52-102.72z"
         id="path19"
         fill="#b3b3b3"
         style="" />
    </g>
  </g>
</svg>
